<svg width="40" height="42" viewBox="0 0 40 42" fill="none" xmlns="http://www.w3.org/2000/svg">
<path d="M16.3062 1.27339L2.29397 12.2422C1.5792 12.8018 1.00123 13.5165 0.603796 14.3322C0.206364 15.1479 -0.000111143 16.0432 4.48823e-08 16.9505V36.0179C4.48823e-08 37.6045 0.630852 39.126 1.75378 40.2479C2.8767 41.3698 4.39971 42 5.98777 42H33.8205C35.4594 42 37.0312 41.3496 38.1901 40.1918C39.3489 39.034 40 37.4638 40 35.8264V16.9505C40.0002 16.0434 39.7938 15.1481 39.3966 14.3324C38.9994 13.5167 38.4218 12.8019 37.7073 12.2422L23.6925 1.27339C22.6386 0.448342 21.3383 0 19.9994 0C18.6604 0 17.3601 0.448342 16.3062 1.27339Z" fill="#6F95B5"/>
<path d="M12.274 29H28.726C29.3291 29 29.9075 29.2107 30.334 29.5858C30.7604 29.9609 31 30.4696 31 31C31 31.5304 30.7604 32.0391 30.334 32.4142C29.9075 32.7893 29.3291 33 28.726 33H12.274C11.6709 33 11.0925 32.7893 10.666 32.4142C10.2396 32.0391 10 31.5304 10 31C10 30.4696 10.2396 29.9609 10.666 29.5858C11.0925 29.2107 11.6709 29 12.274 29Z" fill="white"/>
</svg>
